<svg width="14" height="13" viewBox="0 0 14 13" fill="none" xmlns="http://www.w3.org/2000/svg">
<path d="M3.28125 12.1875C3.15693 12.1875 3.0377 12.1381 2.94979 12.0502C2.86189 11.9623 2.8125 11.8431 2.8125 11.7188V9.84375H2.10938C1.55012 9.84313 1.01396 9.62069 0.618507 9.22524C0.223057 8.82979 0.000620356 8.29363 0 7.73438V2.10938C0.000620356 1.55012 0.223057 1.01396 0.618507 0.618507C1.01396 0.223057 1.55012 0.000620356 2.10938 0H11.0156C11.5749 0.000620356 12.111 0.223057 12.5065 0.618507C12.9019 1.01396 13.1244 1.55012 13.125 2.10938V7.73438C13.1244 8.29363 12.9019 8.82979 12.5065 9.22524C12.111 9.62069 11.5749 9.84313 11.0156 9.84375H6.26191L3.58154 12.0788C3.49719 12.149 3.39096 12.1874 3.28125 12.1875Z" fill="white"/>
</svg>
