<svg width="50" height="50" viewBox="0 0 50 50" fill="none" xmlns="http://www.w3.org/2000/svg">
<path d="M14.0625 45.3125C13.6481 45.3125 13.2507 45.1479 12.9576 44.8549C12.6646 44.5618 12.5 44.1644 12.5 43.75V37.5H10.1562C8.29208 37.4979 6.50486 36.7565 5.18669 35.4383C3.86852 34.1201 3.12707 32.3329 3.125 30.4688V11.7188C3.12707 9.85458 3.86852 8.06736 5.18669 6.74919C6.50486 5.43102 8.29208 4.68957 10.1562 4.6875H39.8438C41.7079 4.68957 43.4951 5.43102 44.8133 6.74919C46.1315 8.06736 46.8729 9.85458 46.875 11.7188V30.4688C46.8729 32.3329 46.1315 34.1201 44.8133 35.4383C43.4951 36.7565 41.7079 37.4979 39.8438 37.5H23.998L15.0635 44.9502C14.7823 45.184 14.4282 45.3122 14.0625 45.3125V45.3125Z" fill="#24FF00"/>
</svg>
