<svg width="51" height="51" viewBox="0 0 51 51" fill="none" xmlns="http://www.w3.org/2000/svg">
<path d="M26.2493 10.5191C26.104 10.38 25.9105 10.3024 25.7093 10.3024C25.5081 10.3024 25.3147 10.38 25.1693 10.5191L7.19075 27.6939C7.1144 27.7669 7.05365 27.8547 7.01219 27.9519C6.97073 28.0491 6.94942 28.1536 6.94954 28.2593L6.94661 44.3785C6.94661 45.2073 7.27585 46.0021 7.8619 46.5882C8.44795 47.1742 9.24281 47.5035 10.0716 47.5035H19.4564C19.8708 47.5035 20.2682 47.3388 20.5612 47.0458C20.8543 46.7528 21.0189 46.3554 21.0189 45.941V32.6597C21.0189 32.4525 21.1012 32.2538 21.2477 32.1073C21.3942 31.9608 21.5929 31.8785 21.8001 31.8785H29.6126C29.8198 31.8785 30.0185 31.9608 30.1651 32.1073C30.3116 32.2538 30.3939 32.4525 30.3939 32.6597V45.941C30.3939 46.3554 30.5585 46.7528 30.8515 47.0458C31.1445 47.3388 31.542 47.5035 31.9564 47.5035H41.3372C42.166 47.5035 42.9609 47.1742 43.5469 46.5882C44.133 46.0021 44.4622 45.2073 44.4622 44.3785V28.2593C44.4624 28.1536 44.441 28.0491 44.3996 27.9519C44.3581 27.8547 44.2974 27.7669 44.221 27.6939L26.2493 10.5191Z" fill="#24FF00"/>
<path d="M48.6468 24.4712L41.3421 17.4829V6.87842C41.3421 6.46402 41.1775 6.06659 40.8845 5.77356C40.5915 5.48054 40.194 5.31592 39.7796 5.31592H35.0921C34.6777 5.31592 34.2803 5.48054 33.9873 5.77356C33.6942 6.06659 33.5296 6.46402 33.5296 6.87842V10.0034L27.8734 4.59521C27.3441 4.06006 26.557 3.75342 25.7064 3.75342C24.8587 3.75342 24.0736 4.06006 23.5443 4.59619L2.77279 24.4692C2.16537 25.0552 2.08919 26.019 2.64193 26.6538C2.78073 26.814 2.95068 26.9443 3.14144 27.0368C3.3322 27.1292 3.53978 27.1819 3.75154 27.1916C3.9633 27.2013 4.17482 27.1678 4.37322 27.0931C4.57162 27.0185 4.75276 26.9042 4.9056 26.7573L25.1693 7.39404C25.3147 7.25496 25.5081 7.17734 25.7093 7.17734C25.9105 7.17734 26.104 7.25496 26.2494 7.39404L46.515 26.7573C46.8135 27.0436 47.2134 27.1998 47.6269 27.1918C48.0404 27.1837 48.4339 27.012 48.721 26.7144C49.3206 26.0933 49.2708 25.0679 48.6468 24.4712Z" fill="#24FF00"/>
</svg>
