<svg width="51" height="51" viewBox="0 0 51 51" fill="none" xmlns="http://www.w3.org/2000/svg">
<path d="M46.7637 22.7148L46.7481 22.7079L5.04109 5.40912C4.69029 5.26229 4.30857 5.20471 3.93006 5.24152C3.55156 5.27833 3.18808 5.40839 2.87215 5.62006C2.53835 5.83878 2.26417 6.13705 2.07427 6.48804C1.88437 6.83903 1.78471 7.23173 1.78426 7.6308V18.6943C1.78444 19.2398 1.97494 19.7682 2.32291 20.1884C2.67089 20.6086 3.15454 20.8942 3.69051 20.996L26.4376 25.2021C26.527 25.219 26.6076 25.2666 26.6657 25.3367C26.7237 25.4068 26.7554 25.4949 26.7554 25.5859C26.7554 25.6769 26.7237 25.765 26.6657 25.835C26.6076 25.9051 26.527 25.9527 26.4376 25.9697L3.69148 30.1757C3.15567 30.2773 2.67204 30.5625 2.32391 30.9823C1.97578 31.4021 1.78494 31.9302 1.78426 32.4755V43.541C1.784 43.922 1.87835 44.2972 2.05885 44.6328C2.23936 44.9684 2.50036 45.254 2.81844 45.4638C3.20105 45.718 3.65008 45.8539 4.10945 45.8544C4.42881 45.8542 4.74489 45.7901 5.03914 45.666L46.7452 28.4658L46.7637 28.457C47.3251 28.2157 47.8035 27.8151 48.1396 27.3049C48.4757 26.7946 48.6549 26.1969 48.6549 25.5859C48.6549 24.9748 48.4757 24.3772 48.1396 23.8669C47.8035 23.3566 47.3251 22.956 46.7637 22.7148V22.7148Z" fill="#24FF00"/>
</svg>
