<svg width="15" height="14" viewBox="0 0 15 14" fill="none" xmlns="http://www.w3.org/2000/svg">
<path d="M11.073 13.1254C10.9743 13.1258 10.8781 13.0951 10.7979 13.0376L7.03002 10.3059L3.26215 13.0376C3.18165 13.0959 3.08467 13.1272 2.98523 13.1269C2.88579 13.1265 2.78903 13.0945 2.70896 13.0355C2.62889 12.9766 2.56965 12.8937 2.5398 12.7988C2.50995 12.704 2.51104 12.6021 2.54291 12.5079L4.01244 8.15523L0.203846 5.54342C0.12135 5.48691 0.0590859 5.40549 0.0261524 5.31108C-0.00678108 5.21666 -0.00865833 5.11419 0.020795 5.01863C0.0502483 4.92307 0.109489 4.83943 0.18986 4.77994C0.270232 4.72044 0.367523 4.68821 0.467518 4.68795H5.16615L6.58412 0.324178C6.61467 0.229965 6.67427 0.147849 6.75438 0.0896097C6.83448 0.0313701 6.93098 0 7.03002 0C7.12906 0 7.22555 0.0313701 7.30566 0.0896097C7.38577 0.147849 7.44537 0.229965 7.47592 0.324178L8.89388 4.68941H13.5925C13.6926 4.68936 13.7901 4.72137 13.8708 4.78075C13.9514 4.84013 14.0108 4.92376 14.0405 5.01939C14.0701 5.11503 14.0684 5.21764 14.0355 5.3122C14.0026 5.40676 13.9403 5.4883 13.8577 5.54488L10.0476 8.15523L11.5162 12.5067C11.54 12.5771 11.5467 12.6522 11.5358 12.7258C11.5248 12.7993 11.4965 12.8692 11.4532 12.9297C11.4099 12.9901 11.3528 13.0394 11.2867 13.0735C11.2206 13.1075 11.1473 13.1253 11.073 13.1254Z" fill="#EBFF00"/>
</svg>
